<?xml version="1.0" encoding="UTF-8"?>
<svg width="16px" height="12px" viewBox="0 0 16 12" version="1.1" xmlns="http://www.w3.org/2000/svg" xmlns:xlink="http://www.w3.org/1999/xlink">
    <!-- Generator: Sketch 48.2 (47327) - http://www.bohemiancoding.com/sketch -->
    <title>Filter</title>
    <desc>Created with Sketch.</desc>
    <defs></defs>
    <g id="Interview-Directory" stroke="none" stroke-width="1" fill="none" fill-rule="evenodd" transform="translate(-322.000000, -162.000000)">
        <g id="Hero" transform="translate(19.000000, 88.000000)" fill="#141410">
            <g id="Filter-&amp;-Sort" transform="translate(287.000000, 56.000000)">
                <g id="Filter" transform="translate(16.000000, 18.000000)">
                    <path d="M7.82929429,8 L16,8 L16,10 L7.82929429,10 C7.41745788,11.1651924 6.30621883,12 5,12 C3.69378117,12 2.58254212,11.1651924 2.17070571,10 L0,10 L0,8 L2.17070571,8 C2.58254212,6.83480763 3.69378117,6 5,6 C6.30621883,6 7.41745788,6.83480763 7.82929429,8 Z M4,8 L4,10 L6,10 L6,8 L4,8 Z" id="Combined-Shape"></path>
                    <path d="M13.8292943,2 L16,2 L16,4 L13.8292943,4 C13.4174579,5.16519237 12.3062188,6 11,6 C9.69378117,6 8.58254212,5.16519237 8.17070571,4 L0,4 L0,2 L8.17070571,2 C8.58254212,0.834807627 9.69378117,2.39948506e-16 11,0 C12.3062188,-2.39948506e-16 13.4174579,0.834807627 13.8292943,2 Z M10,2 L10,4 L12,4 L12,2 L10,2 Z" id="Combined-Shape"></path>
                </g>
            </g>
        </g>
    </g>
</svg>