<?xml version="1.0"?>
<!--Icons from directory ""-->
<svg xmlns="http://www.w3.org/2000/svg" width="124" height="180" viewBox="0 0 124 180"><svg width="17" height="13" id="Arrow" y="0"><g fill="#141410" fill-rule="evenodd"><path d="M0 5h15v2H0z"/><path d="M10.414 0l5.657 5.658-1.414 1.414L9 1.415z"/><path d="M9 10.657L14.659 5l1.414 1.414-5.657 5.657z"/></g></svg><svg width="20" height="16" id="Email" y="13"><path d="M18 0H2C.89 0 0 .89 0 2v12a2 2 0 0 0 2 2h16a2 2 0 0 0 2-2V2a2 2 0 0 0-2-2m0 4l-8 5-8-5V2l8 5 8-5" fill="#141410" fill-rule="evenodd"/></svg><svg width="10" height="20" id="Facebook" y="29"><path d="M10 0v4H8c-.69 0-1 .81-1 1.5V8h3v4H7v8H3v-8H0V8h3V4a4 4 0 0 1 4-4h3z" fill="#141410" fill-rule="evenodd"/></svg><svg width="16" height="12" id="Filter" y="49"><g fill="#141410" fill-rule="evenodd"><path d="M7.83 8H16v2H7.83a3.001 3.001 0 0 1-5.66 0H0V8h2.17a3.001 3.001 0 0 1 5.66 0zM4 8v2h2V8H4zM13.83 2H16v2h-2.17a3.001 3.001 0 0 1-5.66 0H0V2h8.17a3.001 3.001 0 0 1 5.66 0zM10 2v2h2V2h-2z"/></g></svg><svg width="20" height="20" id="Instagram" y="61"><path d="M10 7a3 3 0 1 0 0 6 3 3 0 0 0 0-6m0-2a5 5 0 1 1 0 10 5 5 0 0 1 0-10m5.25-1.5a1.25 1.25 0 1 1 0 2.5 1.25 1.25 0 0 1 0-2.5M5.6 2A3.6 3.6 0 0 0 2 5.6v8.8C2 16.39 3.61 18 5.6 18h8.8c1.989 0 3.6-1.611 3.6-3.6V5.6C18 3.61 16.39 2 14.4 2H5.6m.2-2h8.4C17.4 0 20 2.6 20 5.8v8.4a5.8 5.8 0 0 1-5.8 5.8H5.8C2.6 20 0 17.4 0 14.2V5.8A5.8 5.8 0 0 1 5.8 0" fill="#000" fill-rule="evenodd"/></svg><svg width="124" height="56" id="Logo" y="81"><g fill="none" fill-rule="evenodd"><path fill="#141410" opacity=".1" d="M8 8h48v48H8z"/><path stroke="#141410" stroke-width="4" d="M2 2h44v44H2z"/><text font-family="MetricTest-Semibold, Metric Test" font-size="16" font-weight="500" letter-spacing="2" fill="#141410"><tspan x="56" y="29">Stories</tspan></text><text font-family="MetricTest-Semibold, Metric Test" font-size="16" font-weight="500" letter-spacing="2" fill="#141410"><tspan x="10" y="29">650</tspan></text></g></svg><svg width="16" height="18" id="Pinterest" y="137"><path d="M9 14.25c-1 0-1.96-.43-2.65-1.15l-1.19 4-.08.26-.04-.02c-.25.41-.68.66-1.17.66-.75 0-1.37-.62-1.37-1.38 0-.06.01-.12.02-.18l-.02-.01.06-.22 2.31-6.95s-.25-.76-.25-1.84c0-2.15 1.16-2.8 2.08-2.8.93 0 1.78.33 1.78 1.64 0 1.68-1.12 2.54-1.12 3.74 0 .94.76 1.69 1.68 1.69 2.92 0 3.96-2.19 3.96-4.25 0-2.73-2.36-4.94-5.25-4.94-2.9 0-5.25 2.21-5.25 4.94 0 .84.25 1.68.68 2.41.11.2.17.42.17.65 0 .69-.559 1.25-1.25 1.25-.44 0-.85-.25-1.08-.62A7.226 7.226 0 0 1 0 7.44C0 3.33 3.48 0 7.75 0s7.75 3.33 7.75 7.44c0 3.28-2.04 6.81-6.5 6.81" fill="#141410" fill-rule="evenodd"/></svg><svg width="13" height="8" id="Select" y="155"><g fill="#141410" fill-rule="evenodd"><path d="M13 1.414L7.341 7.071 5.928 5.657 11.585 0z"/><path d="M2.343 0L8 5.659 6.586 7.072.929 1.415z"/></g></svg><svg width="21" height="17" id="Twitter" y="163"><path d="M20.92 2c-.77.35-1.6.58-2.46.69.88-.53 1.56-1.37 1.88-2.38-.83.5-1.75.85-2.72 1.05C16.83.5 15.72 0 14.46 0c-2.35 0-4.27 1.92-4.27 4.29 0 .34.04.67.11.98C6.74 5.09 3.57 3.38 1.46.79c-.37.63-.58 1.37-.58 2.15 0 1.49.75 2.81 1.91 3.56-.71 0-1.37-.2-1.95-.5v.03c0 2.08 1.48 3.82 3.44 4.21a4.22 4.22 0 0 1-1.93.07 4.28 4.28 0 0 0 4 2.98 8.521 8.521 0 0 1-5.33 1.84c-.34 0-.68-.02-1.02-.06C1.9 16.29 4.16 17 6.58 17c7.88 0 12.21-6.54 12.21-12.21 0-.19 0-.37-.01-.56.84-.6 1.56-1.36 2.14-2.23" fill="#141410" fill-rule="evenodd"/></svg></svg>
