<?xml version="1.0" encoding="UTF-8"?>
<svg width="16px" height="18px" viewBox="0 0 16 18" version="1.1" xmlns="http://www.w3.org/2000/svg" xmlns:xlink="http://www.w3.org/1999/xlink">
    <!-- Generator: Sketch 48.2 (47327) - http://www.bohemiancoding.com/sketch -->
    <title>Pinterest</title>
    <desc>Created with Sketch.</desc>
    <defs></defs>
    <g id="Interview-–-Bego-Lozano" stroke="none" stroke-width="1" fill="none" fill-rule="evenodd" transform="translate(-340.000000, -759.000000)">
        <g id="Hero" fill="#141410">
            <g id="Share-–-Horizontal" transform="translate(236.000000, 720.000000)">
                <g id="Pinterest" transform="translate(88.000000, 24.000000)">
                    <g id="Pinterest-Icon" transform="translate(12.000000, 12.000000)">
                        <path d="M13,17.25 C12,17.25 11.04,16.82 10.35,16.1 L9.16,20.1 L9.08,20.36 L9.04,20.34 C8.79,20.75 8.36,21 7.87,21 C7.12,21 6.5,20.38 6.5,19.62 C6.5,19.56 6.51,19.5 6.52,19.44 L6.5,19.43 L6.56,19.21 L8.87,12.26 C8.87,12.26 8.62,11.5 8.62,10.42 C8.62,8.27 9.78,7.62 10.7,7.62 C11.63,7.62 12.48,7.95 12.48,9.26 C12.48,10.94 11.36,11.8 11.36,13 C11.36,13.94 12.12,14.69 13.04,14.69 C15.96,14.69 17,12.5 17,10.44 C17,7.71 14.64,5.5 11.75,5.5 C8.85,5.5 6.5,7.71 6.5,10.44 C6.5,11.28 6.75,12.12 7.18,12.85 C7.29,13.05 7.35,13.27 7.35,13.5 C7.35,14.19 6.791,14.75 6.1,14.75 C5.66,14.75 5.25,14.5 5.02,14.13 C4.35,13 4,11.73 4,10.44 C4,6.33 7.48,3 11.75,3 C16.02,3 19.5,6.33 19.5,10.44 C19.5,13.72 17.46,17.25 13,17.25" id="Pinterest"></path>
                    </g>
                </g>
            </g>
        </g>
    </g>
</svg>