<?xml version="1.0" encoding="UTF-8"?>
<svg width="21px" height="17px" viewBox="0 0 21 17" version="1.1" xmlns="http://www.w3.org/2000/svg" xmlns:xlink="http://www.w3.org/1999/xlink">
    <!-- Generator: Sketch 48.2 (47327) - http://www.bohemiancoding.com/sketch -->
    <title>Twitter</title>
    <desc>Created with Sketch.</desc>
    <defs></defs>
    <g id="Interview-–-Bego-Lozano" stroke="none" stroke-width="1" fill="none" fill-rule="evenodd" transform="translate(-249.000000, -759.000000)">
        <g id="Hero" fill="#141410">
            <g id="Share-–-Horizontal" transform="translate(236.000000, 720.000000)">
                <g id="Twitter" transform="translate(0.000000, 24.000000)">
                    <g id="Twitter-Icon" transform="translate(12.000000, 12.000000)">
                        <path d="M21.92,5 C21.15,5.35 20.32,5.58 19.46,5.69 C20.34,5.16 21.02,4.32 21.34,3.31 C20.51,3.81 19.59,4.16 18.62,4.36 C17.83,3.5 16.72,3 15.46,3 C13.11,3 11.19,4.92 11.19,7.29 C11.19,7.63 11.23,7.96 11.3,8.27 C7.74,8.09 4.57,6.38 2.46,3.79 C2.09,4.42 1.88,5.16 1.88,5.94 C1.88,7.43 2.63,8.75 3.79,9.5 C3.08,9.5 2.42,9.3 1.84,9 L1.84,9.03 C1.84,11.11 3.32,12.85 5.28,13.24 C4.92,13.34 4.54,13.39 4.15,13.39 C3.88,13.39 3.61,13.36 3.35,13.31 C3.89,15 5.46,16.26 7.35,16.29 C5.89,17.45 4.04,18.13 2.02,18.13 C1.68,18.13 1.34,18.11 1,18.07 C2.9,19.29 5.16,20 7.58,20 C15.46,20 19.79,13.46 19.79,7.79 C19.79,7.6 19.79,7.42 19.78,7.23 C20.62,6.63 21.34,5.87 21.92,5" id="Twitter"></path>
                    </g>
                </g>
            </g>
        </g>
    </g>
</svg>